<svg width="17" height="20" viewBox="0 0 17 20" fill="none" xmlns="http://www.w3.org/2000/svg">
<mask id="mask0_0_131" style="mask-type:luminance" maskUnits="userSpaceOnUse" x="0" y="0" width="17" height="21">
<path fill-rule="evenodd" clip-rule="evenodd" d="M0 0.000396729H16.2848V20.0013H0V0.000396729Z" fill="white"/>
</mask>
<g mask="url(#mask0_0_131)">
<path fill-rule="evenodd" clip-rule="evenodd" d="M13.6049 10.6289C13.6169 9.06991 14.4329 7.63291 15.7649 6.81991C14.9249 5.61291 13.5699 4.87091 12.1049 4.81991C10.5419 4.65991 9.10486 5.72991 8.27286 5.72991C7.44486 5.72991 6.27286 4.83991 4.97186 4.85891C3.24586 4.91791 1.67486 5.87891 0.834862 7.39091C-0.926138 10.4489 0.381863 14.9999 2.14386 17.4689C2.94486 18.6799 3.94486 20.0509 5.26486 19.9999C6.58486 19.9489 7.01486 19.1799 8.54286 19.1799C10.0739 19.1799 10.5419 19.9999 11.8429 19.9689C13.1439 19.9419 14.0659 18.7309 14.9059 17.5199C15.4999 16.6409 15.9639 15.6799 16.2849 14.6719C14.6639 13.9809 13.6089 12.3909 13.6049 10.6289ZM11.0849 3.19091C11.8469 2.30891 12.2299 1.15991 12.1439 -9.15527e-05C10.9839 0.0939084 9.90586 0.640908 9.14386 1.51991C8.40586 2.37091 8.04586 3.48791 8.14386 4.60891C9.29286 4.62091 10.3779 4.09391 11.0849 3.19091Z" fill="#1D1D1B"/>
</g>
</svg>
